<?xml version="1.0" standalone="no"?>
<!DOCTYPE svg PUBLIC "-//W3C//DTD SVG 20010904//EN"
 "http://www.w3.org/TR/2001/REC-SVG-20010904/DTD/svg10.dtd">
<svg version="1.0" xmlns="http://www.w3.org/2000/svg"
 width="260.000000pt" height="260.000000pt" viewBox="0 0 260.000000 260.000000"
 preserveAspectRatio="xMidYMid meet">
<metadata>
Created by potrace 1.11, written by Peter Selinger 2001-2013
</metadata>
<g transform="translate(0.000000,260.000000) scale(0.100000,-0.100000)"
fill="#000000" stroke="none">
<path d="M335 1298 l0 -1073 217 -3 217 -2 0 321 -1 321 24 26 c12 14 91 96
174 181 l151 154 103 -174 c56 -96 144 -244 194 -329 51 -85 137 -232 191
-327 l100 -172 283 -1 c224 0 282 3 276 13 -4 6 -41 64 -82 127 -41 63 -94
144 -117 180 -114 176 -225 347 -460 707 -44 67 -104 160 -132 205 l-53 83 33
31 c31 30 456 466 670 688 l107 111 -291 3 -291 2 -26 -27 c-14 -16 -75 -82
-136 -148 -61 -66 -133 -144 -161 -174 -61 -67 -57 -62 -186 -202 -58 -63
-118 -127 -133 -144 -15 -16 -69 -74 -119 -129 -50 -54 -97 -106 -104 -115
-16 -20 -14 -70 -14 477 l1 462 -218 0 -217 0 0 -1072z"/>
</g>
</svg>
